<?xml version="1.0" encoding="utf-8"?>
<!-- Generator: Adobe Illustrator 19.0.1, SVG Export Plug-In . SVG Version: 6.00 Build 0)  -->
<svg version="1.1" id="Слой_1" xmlns="http://www.w3.org/2000/svg" xmlns:xlink="http://www.w3.org/1999/xlink" x="0px" y="0px"
	 viewBox="0 0 1024 768" style="enable-background:new 0 0 1024 768;" xml:space="preserve">
<style type="text/css">
	.st0{fill:#1D1D1B;}
	.st1{fill:#FFFFFF;}
</style>
<g>
	<g>
		<g>
			<path class="st0" d="M838,223.3c0,0,0.2,3.3,0.5,9.4c0.3,6.1,0.8,15.2,1.2,26.6c0.4,11.5,0.9,25.4,1.2,41.4
				c0.3,16,0.6,34.1,0.4,53.8c-0.2,19.7-0.6,41-1.7,63.6c-1.1,22.6-2.7,46.4-5.7,70.9c-1.5,12.3-3.5,24.7-6.2,37.2
				c-1.4,6.2-2.9,12.5-4.8,18.7c-1.9,6.2-4.1,12.4-7,18.5c-0.7,1.5-1.5,3-2.3,4.5c-0.4,0.8-0.8,1.4-1.3,2.2l-1.3,2
				c-0.9,1.4-1.9,2.8-2.8,4.2c-1,1.3-2,2.7-3,4c-4.1,5.3-8.7,10.2-13.5,14.8c-9.7,9.2-20.4,17.2-31.6,24.4
				c-11.2,7.2-22.8,13.5-34.7,19.3c-11.9,5.7-24,10.8-36.1,15.5c-24.3,9.3-48.7,16.9-72.5,23.5c-23.8,6.5-47,12-69.2,16.4
				c-22.2,4.5-43.2,8.2-62.7,11.3c-9.7,1.6-19.1,2.9-28,4.2c-8.9,1.3-17.3,2.3-25.3,3.3c-15.9,1.9-29.8,3.4-41.2,4.5
				c-11.4,1.1-20.4,1.8-26.6,2.3c-6.1,0.4-9.4,0.6-9.4,0.6l0-0.4c0,0,13.1-1,35.9-3.6c22.8-2.6,55.4-6.8,94.2-13.4
				c19.4-3.3,40.4-7.2,62.4-11.9c22-4.7,45.2-10.2,68.9-16.8c23.7-6.6,47.9-14.3,72-23.6c12-4.7,24-9.8,35.8-15.5
				c11.8-5.7,23.3-11.9,34.4-18.9c11-7,21.6-14.9,31.1-23.8c4.7-4.5,9.2-9.2,13.2-14.3c2-2.5,3.9-5.2,5.7-7.9
				c1.8-2.7,3.4-5.5,4.8-8.4c2.8-5.8,5-11.8,6.9-17.9c1.9-6.1,3.4-12.3,4.8-18.5c2.7-12.4,4.7-24.7,6.3-36.9
				c3.2-24.4,5-48.1,6.2-70.6c1.2-22.5,1.8-43.8,2.2-63.5c0.6-39.4,0.1-72.2-0.4-95.1c-0.5-23-1.2-36.1-1.2-36.1L838,223.3z"/>
		</g>
		<path class="st0" d="M770.5,394.6c17.3,104.1-79,187-159.6,212.8c-102.2,32.7-196.5-9.5-210.6-94.3
			c-14.1-84.8,57.4-180,159.6-212.7C662.1,267.6,756.4,309.8,770.5,394.6z"/>
		<path class="st0" d="M640.7,71.4c0,0,87.8-2.6,141,34.4c41.3,28.8,51.4,63.2,51.4,63.2h-90.7c0,0-27.1-37.2-37.5-48.8
			C688.7,102.2,640.7,71.4,640.7,71.4z"/>
		<path class="st0" d="M632.3,71.4c0,0,33.5,17.6,59.3,42.4c27.1,26,45.3,55.3,45.3,55.3l-79.1,4.6c0,0-41.1-37.5-56.3-48.4
			C584.9,113.3,529,82.7,529,82.7s41.3-9.4,54.4-11.3C609.9,67.5,632.3,71.4,632.3,71.4z"/>
		<path class="st0" d="M387.4,124.6c0,0,38.5-18,66.1-23.8c14.8-3.1,63.2-12.3,63.2-12.3s46.2,23.2,61.1,33.2
			c18.3,12.3,68.2,54.9,68.2,54.9s-43.9,0.8-58.3,3.6c-14.3,2.8-58.8,16.5-58.8,16.5s-35-31.5-63.7-44
			C436.9,140.3,387.4,124.6,387.4,124.6z"/>
		<path class="st0" d="M239.1,201.8c0,0,47.9-36.4,65.6-46.2c14.2-7.9,61.4-24.6,61.4-24.6s50.1,20.1,65.4,27.4
			c21,10.1,79.8,43.4,79.8,43.4s-50.4,17.6-66.6,27.4c-16,9.7-61.9,50.5-61.9,50.5s-53.3-37.7-71.8-47.7
			C293.4,222.7,239.1,201.8,239.1,201.8z"/>
		<path class="st0" d="M227.1,219.1c0,0-17.6,32.9-20.8,43.3c-8.3,26.8-8.3,56.3-8.3,56.3s44.2,17,58.3,25.3
			c17.9,10.6,69.2,49.8,69.2,49.8s4.7-42.3,9.4-54.9c4.3-11.7,25-39.7,25-39.7s-48.8-38.4-66.6-49.1
			C277.8,240.9,227.1,219.1,227.1,219.1z"/>
		<path class="st0" d="M195.4,331.1c0,0-5.5,46.8-6.8,62.8c-1.5,19.4-3.1,77.9-3.1,77.9s37.7,16.4,49.4,23.3
			c23.9,14,87.4,70.1,87.4,70.1s2.1-140.8,0-143.7c-1.4-2-57.2-52.8-94.2-78.7C211.8,331.2,195.4,331.1,195.4,331.1z"/>
		<path class="st0" d="M185.5,487.8c2.4-2.7,26,24.3,56.7,49.1c36.6,29.5,81.1,57.8,81.1,57.8V724c0,0-91.6-36.3-99.3-44
			c-24.4-24.5-24.9-38.4-31.2-79.5C184.9,549.5,181.1,492.9,185.5,487.8z"/>
	</g>
	<path class="st1" d="M159.5,102.8c0,0-7,12.2-6.8,14.6l15.1-6.4C167.8,111,168,105.7,159.5,102.8
		C158,102.3,159.5,102.8,159.5,102.8z"/>
	<path class="st1" d="M167.8,114.5c0,0-15.4,3.2-15,4.9c0.6,2.4,14,1.6,14,1.6l0,0C168.4,119.3,167.8,114.5,167.8,114.5z"/>
</g>
</svg>
